<svg width="590" height="130" viewBox="0 0 118 26" fill="none" xmlns="http://www.w3.org/2000/svg"><path d="M64.4398 19.2214V0.0800781H59.5942V19.2214C59.5942 22.213 61.6589 24.7209 64.4398 25.4035C64.9269 25.5232 65.4359 25.5872 65.9601 25.5872H69.2837V20.7416H65.9601C65.1207 20.7416 64.4398 20.0607 64.4398 19.2197V19.2214Z" fill="#FF5E00"></path><path d="M68.4159 4.82007H67.7839C66.5077 4.82007 65.4731 5.85461 65.4731 7.13078V7.73079C65.4731 9.00696 66.5077 10.0415 67.7839 10.0415H68.4159C69.6921 10.0415 70.7266 9.00696 70.7266 7.73079V7.13078C70.7266 5.85461 69.6921 4.82007 68.4159 4.82007Z" fill="#FF5E00"></path><path d="M92.3223 25.5872H97.1679V0.0800781H92.3223V25.5872Z" fill="#FF5E00"></path><path d="M110.681 16.6562L116.961 7.72515H111.298L105.355 15.9567V0.0800781H100.509V25.5872H105.355V17.3051L111.803 25.5872H117.803L110.681 16.6562Z" fill="#FF5E00"></path><path d="M5.6493 19.2214V0.0800781H0.803711V19.2214C0.803711 22.213 2.86835 24.7209 5.6493 25.4035C6.13638 25.5232 6.64538 25.5872 7.16955 25.5872H10.4932V20.7416H7.16955C6.33021 20.7416 5.6493 20.0607 5.6493 19.2197V19.2214Z" fill="#FF5E00"></path><path d="M29.2687 19.3906C29.2637 19.335 29.2603 19.2794 29.2603 19.2221V7.72414H24.8091V8.74382C23.9596 7.95336 21.9961 7.3938 20.4169 7.3938C15.3016 7.3938 11.1538 11.5399 11.1538 16.6569C11.1538 21.7738 15.2999 25.9199 20.4169 25.9199C22.7326 25.9199 24.8479 25.0688 26.4726 23.6632C27.2226 24.5008 28.1816 25.116 29.2603 25.4042C29.7086 25.5239 30.1755 25.5879 30.6575 25.5879H31.2103V20.7423H30.6575C29.9378 20.7423 29.3462 20.1507 29.2687 19.3906ZM24.649 19.0923C23.8046 20.5553 22.2287 21.5429 20.4169 21.5429C17.7185 21.5429 15.5308 19.3552 15.5308 16.6569C15.5308 13.9585 17.7185 11.7708 20.4169 11.7708C22.227 11.7708 23.8046 12.7585 24.649 14.2214C25.0636 14.9394 25.3046 15.7703 25.3046 16.6586C25.3046 17.5468 25.0636 18.3777 24.649 19.0957V19.0923Z" fill="#FF5E00"></path><path d="M51.7866 19.8163C51.7866 20.6556 51.1057 21.3382 50.2664 21.3382H48.7293C47.9186 21.3382 47.2579 20.7028 47.2124 19.9039C47.2124 19.8752 47.2141 19.8466 47.2141 19.8179V7.72168H42.3634V19.8163C42.3634 19.8449 42.3634 19.8736 42.3651 19.9022C42.3196 20.7028 41.6589 21.3365 40.8483 21.3365H39.3111C38.4718 21.3365 37.7909 20.6556 37.7909 19.8146V7.72168H32.9453V19.2196C32.9453 22.1152 34.8785 24.5573 37.5246 25.3293C37.6122 25.3546 37.7016 25.3781 37.7892 25.4001C38.2763 25.5197 38.7853 25.5838 39.3095 25.5838H40.8466C41.3707 25.5838 41.8797 25.5197 42.3668 25.4001C42.4561 25.3781 42.5438 25.3546 42.6314 25.3293C43.4253 25.0984 44.1534 24.7158 44.7854 24.2169C45.4174 24.7158 46.1455 25.0984 46.9394 25.3293C47.027 25.3546 47.1163 25.3781 47.204 25.4001C47.6911 25.5197 48.2001 25.5838 48.7242 25.5838H50.2613C50.7855 25.5838 51.2945 25.5197 51.7816 25.4001C51.8709 25.3781 51.9585 25.3546 52.0462 25.3293C54.6923 24.5573 56.6255 22.1152 56.6255 19.2196V7.72168H51.7799V19.8163H51.7866Z" fill="#FF5E00"></path><path d="M88.4069 19.3906C88.4018 19.335 88.3985 19.2794 88.3985 19.2221V7.72414H83.9473V8.74382C83.0978 7.95336 81.1343 7.3938 79.5551 7.3938C74.4398 7.3938 70.292 11.5399 70.292 16.6569C70.292 21.7738 74.4381 25.9199 79.5551 25.9199C81.8708 25.9199 83.986 25.0688 85.6108 23.6632C86.3608 24.5008 87.3198 25.116 88.3985 25.4042C88.8468 25.5239 89.3137 25.5879 89.7957 25.5879H90.3485V20.7423H89.7957C89.076 20.7423 88.4844 20.1507 88.4069 19.3906ZM83.7872 19.0923C82.9428 20.5553 81.3669 21.5429 79.5551 21.5429C76.8567 21.5429 74.669 19.3552 74.669 16.6569C74.669 13.9585 76.8567 11.7708 79.5551 11.7708C81.3652 11.7708 82.9428 12.7585 83.7872 14.2214C84.2018 14.9394 84.4428 15.7703 84.4428 16.6586C84.4428 17.5468 84.2018 18.3777 83.7872 19.0957V19.0923Z" fill="#FF5E00"></path></svg>